<svg width="51" height="51" viewBox="0 0 51 51" fill="none" xmlns="http://www.w3.org/2000/svg">
<path d="M25.5 4.78125C21.4022 4.78125 17.3965 5.99638 13.9893 8.27299C10.5821 10.5496 7.92653 13.7854 6.35838 17.5713C4.79023 21.3571 4.37993 25.523 5.17936 29.542C5.9788 33.5611 7.95207 37.2528 10.8496 40.1504C13.7472 43.0479 17.4389 45.0212 21.458 45.8206C25.477 46.6201 29.6429 46.2098 33.4287 44.6416C37.2146 43.0735 40.4504 40.4179 42.727 37.0107C45.0036 33.6035 46.2188 29.5978 46.2188 25.5C46.213 20.0068 44.0282 14.7403 40.144 10.856C36.2597 6.97178 30.9932 4.78705 25.5 4.78125ZM25.5 43.0312C22.0327 43.0312 18.6432 42.0031 15.7602 40.0767C12.8772 38.1503 10.6301 35.4123 9.30325 32.2089C7.97635 29.0055 7.62917 25.4806 8.30562 22.0798C8.98206 18.6791 10.6518 15.5553 13.1035 13.1035C15.5553 10.6517 18.6791 8.98206 22.0798 8.30561C25.4806 7.62916 29.0055 7.97634 32.2089 9.30324C35.4123 10.6301 38.1504 12.8772 40.0767 15.7602C42.0031 18.6432 43.0313 22.0326 43.0313 25.5C43.026 30.148 41.1773 34.604 37.8907 37.8906C34.604 41.1772 30.148 43.026 25.5 43.0312ZM33.0026 25.9662C33.1508 26.1142 33.2683 26.29 33.3485 26.4834C33.4287 26.6769 33.47 26.8843 33.47 27.0938C33.47 27.3032 33.4287 27.5106 33.3485 27.7041C33.2683 27.8975 33.1508 28.0733 33.0026 28.2213L26.6276 34.5963C26.4796 34.7445 26.3038 34.8621 26.1103 34.9423C25.9168 35.0225 25.7095 35.0638 25.5 35.0638C25.2906 35.0638 25.0832 35.0225 24.8897 34.9423C24.6962 34.8621 24.5204 34.7445 24.3724 34.5963L17.9974 28.2213C17.6984 27.9223 17.5304 27.5167 17.5304 27.0938C17.5304 26.6708 17.6984 26.2652 17.9974 25.9662C18.2965 25.6671 18.7021 25.4991 19.125 25.4991C19.5479 25.4991 19.9535 25.6671 20.2526 25.9662L23.9063 29.6218V17.5312C23.9063 17.1086 24.0742 16.7032 24.3731 16.4043C24.6719 16.1054 25.0773 15.9375 25.5 15.9375C25.9227 15.9375 26.3281 16.1054 26.627 16.4043C26.9258 16.7032 27.0938 17.1086 27.0938 17.5312V29.6218L30.7474 25.9662C30.8954 25.818 31.0712 25.7004 31.2647 25.6202C31.4582 25.54 31.6656 25.4987 31.875 25.4987C32.0845 25.4987 32.2918 25.54 32.4853 25.6202C32.6788 25.7004 32.8546 25.818 33.0026 25.9662Z" fill="#343330"/>
</svg>
