<svg width="58" height="58" viewBox="0 0 58 58" fill="none" xmlns="http://www.w3.org/2000/svg">
<path d="M50.75 29C50.75 29.4807 50.559 29.9417 50.2191 30.2816C49.8792 30.6215 49.4182 30.8125 48.9375 30.8125H9.0625C8.5818 30.8125 8.12078 30.6215 7.78087 30.2816C7.44096 29.9417 7.25 29.4807 7.25 29C7.25 28.5193 7.44096 28.0583 7.78087 27.7184C8.12078 27.3785 8.5818 27.1875 9.0625 27.1875H48.9375C49.4182 27.1875 49.8792 27.3785 50.2191 27.7184C50.559 28.0583 50.75 28.5193 50.75 29ZM9.0625 16.3125H48.9375C49.4182 16.3125 49.8792 16.1215 50.2191 15.7816C50.559 15.4417 50.75 14.9807 50.75 14.5C50.75 14.0193 50.559 13.5583 50.2191 13.2184C49.8792 12.8785 49.4182 12.6875 48.9375 12.6875H9.0625C8.5818 12.6875 8.12078 12.8785 7.78087 13.2184C7.44096 13.5583 7.25 14.0193 7.25 14.5C7.25 14.9807 7.44096 15.4417 7.78087 15.7816C8.12078 16.1215 8.5818 16.3125 9.0625 16.3125ZM48.9375 41.6875H9.0625C8.5818 41.6875 8.12078 41.8785 7.78087 42.2184C7.44096 42.5583 7.25 43.0193 7.25 43.5C7.25 43.9807 7.44096 44.4417 7.78087 44.7816C8.12078 45.1215 8.5818 45.3125 9.0625 45.3125H48.9375C49.4182 45.3125 49.8792 45.1215 50.2191 44.7816C50.559 44.4417 50.75 43.9807 50.75 43.5C50.75 43.0193 50.559 42.5583 50.2191 42.2184C49.8792 41.8785 49.4182 41.6875 48.9375 41.6875Z" fill="#343330"/>
</svg>
